<svg width="14" height="13" viewBox="0 0 14 13" fill="none" xmlns="http://www.w3.org/2000/svg">
<path d="M6.91995 0.551652C6.66405 0.446637 6.36984 0.504599 6.17416 0.699627L3.23684 3.90872H1.18421C0.807895 3.90872 0.5 4.21626 0.5 4.59063V8.68209C0.5 9.05715 0.807895 9.36401 1.18421 9.36401H3.23684L6.17416 12.5745C6.36984 12.7695 6.66405 12.8281 6.91995 12.7224C7.17584 12.6167 7.34211 12.3678 7.34211 12.0917V1.18106C7.34211 0.906247 7.17584 0.655984 6.91995 0.551652ZM8.71053 1.86291V3.22674C10.5969 3.22674 12.1316 4.75696 12.1316 6.63635C12.1316 8.51639 10.5969 10.0459 8.71053 10.0459V11.4098C11.3516 11.4098 13.5 9.26922 13.5 6.63635C13.5 4.00481 11.3516 1.86291 8.71053 1.86291ZM8.71053 4.59057C9.84221 4.59057 10.7632 5.50914 10.7632 6.63635C10.7632 7.76492 9.84221 8.68209 8.71053 8.68209V7.31826C9.08753 7.31826 9.39474 7.01208 9.39474 6.63635C9.39474 6.26061 9.08753 5.95443 8.71053 5.95443V4.59057Z" fill="#72767D"/>
</svg>
