<svg width="13" height="11" viewBox="0 0 13 11" fill="none" xmlns="http://www.w3.org/2000/svg">
<path fill-rule="evenodd" clip-rule="evenodd" d="M9.63822 0.135986L10.7226 0.143217L10.7347 1.9013L12.4928 1.9134L12.5 2.99777L10.7415 2.98605L10.7536 4.74413L9.66889 4.73728L9.65717 2.97882L7.89871 2.9671L7.89186 1.88234L9.64994 1.89445L9.63822 0.135986ZM6.96385 4.31342C6.96385 5.51709 5.99697 6.49695 4.80922 6.49695C3.62149 6.49695 2.65461 5.51709 2.65461 4.31342C2.65461 3.10975 3.62149 2.12989 4.80922 2.12989C5.99697 2.12989 6.96385 3.10975 6.96385 4.31342ZM0.5 10.3181C0.5 8.38953 2.27163 7.04283 4.80922 7.04283C7.34684 7.04283 9.11846 8.38953 9.11846 10.3181V10.864H0.5V10.3181Z" fill="#C0BCBC"/>
</svg>
