<svg width="13" height="13" viewBox="0 0 13 13" fill="none" xmlns="http://www.w3.org/2000/svg">
<path d="M2.51868 12.4974C2.31203 12.4974 2.15554 12.3101 2.19166 12.1059L2.59404 9.83133H0.332232C0.125894 9.83133 -0.0305044 9.64457 0.00506112 9.44061L0.12131 8.77409C0.149123 8.61466 0.287134 8.49828 0.448481 8.49828H2.82654L3.53067 4.49914H1.26887C1.06253 4.49914 0.90613 4.31236 0.941696 4.10843L1.05794 3.44191C1.08576 3.28244 1.22377 3.16609 1.38512 3.16609H3.76317L4.18616 0.775021C4.2143 0.615915 4.35214 0.5 4.51318 0.5H5.16708C5.37371 0.5 5.53022 0.68734 5.49408 0.891503L5.09173 3.16609H9.0774L9.50042 0.775021C9.52852 0.615915 9.66636 0.5 9.82744 0.5H10.4813C10.688 0.5 10.8445 0.68734 10.8083 0.891503L10.406 3.16609H12.6678C12.8741 3.16609 13.0305 3.35287 12.9949 3.5568L12.8787 4.22333C12.8509 4.38279 12.7129 4.49914 12.5515 4.49914H10.1735L9.46933 8.49828H11.7311C11.9375 8.49828 12.0939 8.68504 12.0583 8.889L11.942 9.55552C11.9143 9.71496 11.7762 9.83133 11.6149 9.83133H9.23683L8.81382 12.2224C8.78572 12.3815 8.64788 12.4974 8.48679 12.4974H7.83294C7.62629 12.4974 7.46978 12.3101 7.50592 12.1059L7.90827 9.83133H3.9226L3.49961 12.2224C3.47147 12.3815 3.33362 12.4974 3.17258 12.4974H2.51868ZM4.85953 4.49914L4.15539 8.49828H8.14104L8.84517 4.49914H4.85953Z" fill="#72767D"/>
</svg>
